<svg width="18" height="18" viewBox="0 0 18 18" fill="none" xmlns="http://www.w3.org/2000/svg">
<mask id="mask0_511_985" style="mask-type:alpha" maskUnits="userSpaceOnUse" x="0" y="0" width="18" height="18">
<rect width="18" height="18" fill="#D9D9D9"/>
</mask>
<g mask="url(#mask0_511_985)">
<path d="M2.25 15V13.5H4.3125L4.0125 13.2375C3.3625 12.6625 2.90625 12.0063 2.64375 11.2688C2.38125 10.5312 2.25 9.7875 2.25 9.0375C2.25 7.65 2.66563 6.41563 3.49688 5.33437C4.32812 4.25312 5.4125 3.5375 6.75 3.1875V4.7625C5.85 5.0875 5.125 5.64062 4.575 6.42188C4.025 7.20312 3.75 8.075 3.75 9.0375C3.75 9.6 3.85625 10.1469 4.06875 10.6781C4.28125 11.2094 4.6125 11.7 5.0625 12.15L5.25 12.3375V10.5H6.75V15H2.25ZM15.6938 8.25H14.175C14.1125 7.8125 13.9781 7.39375 13.7719 6.99375C13.5656 6.59375 13.2875 6.2125 12.9375 5.85L12.75 5.6625V7.5H11.25V3H15.75V4.5H13.6875L13.9875 4.7625C14.5 5.2875 14.8938 5.84375 15.1688 6.43125C15.4438 7.01875 15.6188 7.625 15.6938 8.25Z" fill="#1C1B1F"/>
<mask id="mask1_511_985" style="mask-type:alpha" maskUnits="userSpaceOnUse" x="7" y="8" width="10" height="10">
<rect x="7" y="8" width="10" height="10" fill="#D9D9D9"/>
</mask>
<g mask="url(#mask1_511_985)">
<path d="M8.6665 16.667V11.167H10.1665V9.66699H13.9165V12.667H15.6665V16.667H12.6665V15.167H11.6665V16.667H8.6665ZM9.4165 15.917H10.1665V15.167H9.4165V15.917ZM9.4165 14.292H10.1665V13.542H9.4165V14.292ZM9.4165 12.667H10.1665V11.917H9.4165V12.667ZM10.9165 14.292H11.6665V13.542H10.9165V14.292ZM10.9165 12.667H11.6665V11.917H10.9165V12.667ZM10.9165 11.167H11.6665V10.417H10.9165V11.167ZM12.4165 14.292H13.1665V13.542H12.4165V14.292ZM12.4165 12.667H13.1665V11.917H12.4165V12.667ZM12.4165 11.167H13.1665V10.417H12.4165V11.167ZM14.1665 15.917H14.9165V15.167H14.1665V15.917ZM14.1665 14.292H14.9165V13.542H14.1665V14.292Z" fill="#1C1B1F"/>
</g>
</g>
</svg>
